<svg width="81" height="24" viewBox="0 0 81 24" fill="none" xmlns="http://www.w3.org/2000/svg">
<path d="M12.2948 18.8411H19.9754V16.819H14.6228V14.3381H19.0578V12.3161H14.6228V10.0221H20.0094V8H12.2948V18.8411ZM29.2192 14.8309L24.1895 8H20.723L21.8106 9.37638V18.8751H24.1215V11.7553L29.3212 18.8411H31.5472V8H29.2192V14.8309ZM8.79441 13.2676C9.81396 13.0807 10.6636 12.1291 10.6636 10.7867C10.6636 9.3424 9.61005 8 7.51999 8H0.791016L1.84454 9.3424V18.8581H7.75788C9.84794 18.8581 10.9355 17.5497 10.9355 15.9184C10.8845 14.576 9.96689 13.4206 8.79441 13.2676ZM4.1555 10.0391H7.06119C7.84284 10.0391 8.33562 10.4979 8.33562 11.1776C8.33562 11.8573 7.84284 12.3161 7.06119 12.3161H4.1555V10.0391ZM7.16315 16.836H4.1555V14.3381H7.16315C8.04675 14.3381 8.53953 14.8989 8.53953 15.5786C8.53953 16.3602 8.01277 16.819 7.16315 16.836ZM65.4979 14.8309H66.7044V16.1054C66.0756 16.6151 65.294 16.904 64.4784 16.921C62.5412 16.921 61.1818 15.4427 61.1818 13.4545C61.1818 11.4664 62.5582 9.98811 64.4784 9.98811C65.4809 9.98811 66.4155 10.5149 66.9592 11.3645L68.7944 10.3449C68.0128 9.1045 66.6364 8 64.4614 8C61.3858 8 58.8369 10.124 58.8369 13.4206C58.8369 16.7171 61.3518 18.8411 64.4614 18.8411C66.1606 18.8751 67.7749 18.1444 68.8964 16.887V12.8768H63.9346L65.4979 14.8309ZM55.0476 14.8309L50.0009 8H46.5514L47.6219 9.37638V18.8751H49.9499V11.7553L55.1496 18.8411H57.3586V8H55.0476V14.8309ZM76.5769 8H72.1079L73.1784 9.37638L72.9915 9.90314L69.5251 18.8751H72.1419L72.8216 17.0399H77.4945L78.1742 18.8751H80.791L76.5769 8ZM73.4163 15.0008L75.1156 10.328L76.8148 15.0008H73.4163ZM42.8811 8H45.209V18.8921H42.8811V8ZM41.0289 9.86916V8H32.8556V10.0221H37.9873L32.8556 16.989V18.8411H41.1139V16.819H35.8632L41.0289 9.86916Z" fill="#093451"/>
</svg>
