<svg width="72" height="24" viewBox="0 0 72 24" fill="none" xmlns="http://www.w3.org/2000/svg">
<path d="M5.63352 7.18299C4.78582 7.18299 4.54073 7.55897 4.54073 8.38823V9.76389H6.80186L6.57522 11.9864H4.5416V18.7311H1.82806V11.9864H0V9.76389H1.82806V8.426C1.82806 6.18419 2.73199 5.00003 5.25403 5.00003C5.78251 4.9988 6.31063 5.03017 6.83525 5.09403V7.18563L5.63352 7.18299Z" fill="#1877F2"/>
<path d="M6.99121 13.9645C6.99121 11.4592 8.178 9.57227 10.6649 9.57227C12.0212 9.57227 12.8496 10.2698 13.2458 11.1359V9.76377H15.8451V18.731H13.2458V17.3747C12.8689 18.2417 12.0212 18.9199 10.6649 18.9199C8.178 18.9199 6.99121 17.0356 6.99121 14.5276V13.9645ZM9.70388 14.568C9.70388 15.905 10.1932 16.7905 11.4555 16.7905C12.5676 16.7905 13.1325 15.9806 13.1325 14.6998V13.7994C13.1325 12.5186 12.5676 11.7087 11.4555 11.7087C10.1932 11.7087 9.70388 12.5941 9.70388 13.9312V14.568Z" fill="#1877F2"/>
<path d="M21.497 9.57507C22.5512 9.57507 23.55 9.80171 24.0964 10.1777L23.4937 12.0997C22.9286 11.8306 22.311 11.689 21.685 11.6851C20.2154 11.6851 19.5767 12.5328 19.5767 13.984V14.5111C19.5767 15.9623 20.2171 16.81 21.685 16.81C22.311 16.8061 22.9286 16.6645 23.4937 16.3954L24.0964 18.3166C23.55 18.6934 22.552 18.9201 21.497 18.9201C18.3126 18.9201 16.8623 17.2053 16.8623 14.4549V14.0403C16.8623 11.2898 18.3126 9.57507 21.497 9.57507Z" fill="#1877F2"/>
<path d="M24.4517 14.5903V13.7997C24.4517 11.2566 25.902 9.58313 28.8606 9.58313C31.6488 9.58313 32.8734 11.2785 32.8734 13.7654V15.1973H27.1634C27.2205 16.4219 27.7669 16.9683 29.2717 16.9683C30.2899 16.9683 31.3633 16.761 32.1548 16.4219L32.6511 18.2798C31.9352 18.6576 30.4656 18.9395 29.1663 18.9395C25.7324 18.9387 24.4517 17.2257 24.4517 14.5903ZM27.1643 13.422H30.4427V13.1962C30.4427 12.2167 30.0474 11.4393 28.8615 11.4393C27.6361 11.4402 27.1643 12.2132 27.1643 13.4185V13.422Z" fill="#1877F2"/>
<path d="M42.9274 14.5307C42.9274 17.036 41.7222 18.9229 39.2379 18.9229C37.8816 18.9229 36.9399 18.2448 36.563 17.3777V18.7341H34.0015V5.26123L36.7141 5.01526V11.0063C37.1094 10.2157 37.9765 9.57443 39.2388 9.57443C41.7257 9.57443 42.9283 11.4587 42.9283 13.9667L42.9274 14.5307ZM40.2148 13.9087C40.2148 12.6464 39.7255 11.7047 38.4254 11.7047C37.3132 11.7047 36.7106 12.4953 36.7106 13.777V14.7187C36.7106 15.9994 37.3132 16.7909 38.4254 16.7909C39.7255 16.7909 40.2148 15.8492 40.2148 14.5869V13.9087Z" fill="#1877F2"/>
<path d="M43.8335 14.4735V14.0219C43.8335 11.4402 45.3032 9.5752 48.2987 9.5752C51.2942 9.5752 52.7647 11.4402 52.7647 14.0219V14.4735C52.7647 17.0543 51.2951 18.9202 48.2996 18.9202C45.304 18.9202 43.8335 17.0543 43.8335 14.4735ZM50.0512 13.8331C50.0512 12.6463 49.561 11.7046 48.2943 11.7046C47.0276 11.7046 46.5418 12.6463 46.5418 13.8331V14.6623C46.5418 15.8491 47.032 16.7908 48.2943 16.7908C49.5566 16.7908 50.0512 15.8491 50.0512 14.6623V13.8331Z" fill="#1877F2"/>
<path d="M53.6714 14.4733V14.0218C53.6714 11.44 55.141 9.57507 58.1366 9.57507C61.1321 9.57507 62.6017 11.44 62.6017 14.0218V14.4733C62.6017 17.0542 61.1321 18.9201 58.1366 18.9201C55.141 18.9201 53.6714 17.0542 53.6714 14.4733ZM59.8891 13.8329C59.8891 12.6461 59.3989 11.7044 58.1366 11.7044C56.8742 11.7044 56.3849 12.6461 56.3849 13.8329V14.6622C56.3849 15.849 56.8742 16.7907 58.1366 16.7907C59.3989 16.7907 59.8891 15.849 59.8891 14.6622V13.8329Z" fill="#1877F2"/>
<path d="M66.3298 14.0405L69.0046 9.76418H71.8869L69.0802 14.1916L72.0002 18.7314H69.118L66.3298 14.3392V18.7314H63.6162V5.26123L66.3298 5.01526V14.0405Z" fill="#1877F2"/>
</svg>
